<svg width="46" height="46" viewBox="0 0 46 46" fill="#fff" xmlns="http://www.w3.org/2000/svg"><path d="M35.8092 22.1786C35.8092 22.4011 35.7236 22.5979 35.5525 22.769L23.5904 34.731C23.4193 34.9022 23.2225 34.9877 23 34.9877C22.7775 34.9877 22.5807 34.9022 22.4096 34.731L10.4475 22.769C10.2764 22.5979 10.1908 22.4011 10.1908 22.1786C10.1908 21.9561 10.2764 21.7593 10.4475 21.5882L11.731 20.3047C11.9022 20.1336 12.099 20.048 12.3214 20.048C12.5439 20.048 12.7407 20.1336 12.9118 20.3047L23 30.3929L33.0882 20.3047C33.2593 20.1336 33.4561 20.048 33.6786 20.048C33.901 20.048 34.0978 20.1336 34.269 20.3047L35.5525 21.5882C35.7236 21.7593 35.8092 21.9561 35.8092 22.1786ZM35.8092 12.3214C35.8092 12.5439 35.7236 12.7407 35.5525 12.9118L23.5904 24.8739C23.4193 25.045 23.2225 25.1306 23 25.1306C22.7775 25.1306 22.5807 25.045 22.4096 24.8739L10.4475 12.9118C10.2764 12.7407 10.1908 12.5439 10.1908 12.3214C10.1908 12.099 10.2764 11.9022 10.4475 11.731L11.731 10.4476C11.9022 10.2764 12.099 10.1909 12.3214 10.1909C12.5439 10.1909 12.7407 10.2764 12.9118 10.4476L23 20.5357L33.0882 10.4476C33.2593 10.2764 33.4561 10.1909 33.6786 10.1909C33.901 10.1909 34.0978 10.2764 34.269 10.4476L35.5525 11.731C35.7236 11.9022 35.8092 12.099 35.8092 12.3214Z" fill="#fff"/></svg>